#!OML:ASF F:\VICON\USERDATA\INSTALL\rory3\rory3.ASF
:FULLY-SPECIFIED
:DEGREES
1
root 0.38606 16.9038 -30.4282 3.97253 0.155766 -5.642
lowerback 17.9486 1.29267 2.51111
upperback 0.685599 2.564 3.49981
thorax -9.40459 1.19911 1.71759
lowerneck -21.9842 -3.45102 -1.9348
upperneck 8.16274 -4.35255 2.149
head 6.08165 -1.98739 0.510118
rclavicle -1.00386e-014 1.98785e-015
rhumerus -35.5338 12.0692 -93.3951
rradius 96.6855
rwrist -7.90974
rhand -23.2033 40.5579
rfingers 7.12502
rthumb 3.24678 10.6029
lclavicle -1.00386e-014 1.98785e-015
lhumerus -50.8669 -10.1436 95.4173
lradius 101.571
lwrist 27.446
lhand -30.3691 5.26938
lfingers 7.12502
lthumb -3.67393 35.2175
rfemur -22.223 11.0067 34.7758
rtibia 51.6455
rfoot -26.8027 -10.1011
rtoes 3.78883
lfemur -29.5284 4.83564 -10.9905
ltibia 96.486
lfoot 7.9116 -15.5887
ltoes 1.91815
2
root 0.394775 16.9282 -29.9873 4.30523 0.734441 -5.62451
lowerback 17.7491 1.20347 2.73789
upperback 0.218889 2.50821 3.49916
thorax -9.79825 1.15897 1.60681
lowerneck -20.7267 -3.44168 -2.23737
upperneck 7.63877 -4.30794 2.41678
head 5.73044 -1.96737 0.669687
rclavicle -5.96354e-016 1.19271e-015
rhumerus -35.2084 12.6988 -93.696
rradius 97.9796
rwrist -8.72487
rhand -23.3038 40.0921
rfingers 7.12502
rthumb 3.1497 10.1356
lclavicle -5.96354e-016 1.19271e-015
lhumerus -53.0475 -10.0118 95.9217
lradius 102.181
lwrist 27.5763
lhand -30.1935 4.30322
lfingers 7.12502
lthumb -3.50429 34.2542
rfemur -20.266 10.5274 34.9707
rtibia 50.3938
rfoot -27.6599 -10.2822
rtoes 4.20309
lfemur -31.855 4.30786 -11.2158
ltibia 96.6885
lfoot 5.57167 -14.5208
ltoes -3.2526
3
root 0.40733 16.9663 -29.5332 4.77413 1.17241 -5.47763
lowerback 17.0973 1.30517 2.99652
upperback 0.117239 2.64504 3.28431
thorax -9.52084 1.20963 1.20252
lowerneck -20.7488 -3.60151 -1.95785
upperneck 7.30737 -4.58132 2.37283
head 5.62609 -2.09683 0.5844
rclavicle -1.46107e-014 -1.82882e-014
rhumerus -33.8886 13.3859 -93.8173
rradius 99.056
rwrist -10.134
rhand -23.766 39.4626
rfingers 7.12502
rthumb 2.70331 9.49998
lclavicle -1.46107e-014 -1.82882e-014
lhumerus -54.4331 -10.5095 96.2306
lradius 102.883
lwrist 27.9294
lhand -29.7208 4.1307
lfingers 7.12502
lthumb -3.04786 34.0887
rfemur -18.2293 10.205 35.0001
rtibia 48.8726
rfoot -28.113 -10.8059
rtoes 2.42003
lfemur -34.2087 3.78959 -11.7004
ltibia 96.3341
lfoot 4.27466 -12.9892
ltoes -3.25369
4
root 0.418167 17.013 -29.0794 5.17308 1.54726 -5.51809
lowerback 16.5798 1.4314 3.21459
upperback -0.183921 2.84251 3.27033
thorax -9.54978 1.29292 1.02569
lowerneck -19.7961 -3.74143 -1.98295
upperneck 6.70095 -4.76532 2.37072
head 5.28939 -2.20028 0.587857
rclavicle 8.15017e-015 1.98785e-015
rhumerus -33.9487 13.2831 -93.8543
rradius 100.745
rwrist -10.4476
rhand -23.4445 39.754
rfingers 7.12502
rthumb 3.01387 9.79557
lclavicle 8.15017e-015 1.98785e-015
lhumerus -56.2512 -10.655 96.7477
lradius 103.697
lwrist 28.5223
lhand -29.2577 3.96392
lfingers 7.12502
lthumb -2.60063 33.9278
rfemur -16.1099 10.1164 35.2471
rtibia 47.3188
rfoot -27.8022 -11.2361
rtoes 0.486058
lfemur -36.5544 3.32965 -11.9838
ltibia 95.724
lfoot 3.71626 -11.2986
ltoes -0.71381
5
root 0.4308 17.0733 -28.6259 5.44891 2.12557 -5.61311
lowerback 16.4626 1.3447 3.44391
upperback -0.837985 2.81754 3.40544
thorax -10.2054 1.26277 1.05148
lowerneck -17.6805 -3.77723 -2.67122
upperneck 6.06288 -4.73445 2.82581
head 4.78686 -2.19465 0.880488
rclavicle -4.07509e-015 -2.34566e-014
rhumerus -34.5403 13.8356 -94.0153
rradius 102.332
rwrist -10.9957
rhand -23.2661 39.772
rfingers 7.12502
rthumb 3.18614 9.81603
lclavicle -4.07509e-015 -2.34566e-014
lhumerus -58.7151 -10.0829 97.3979
lradius 104.526
lwrist 29.1444
lhand -29.4156 4.18203
lfingers 7.12502
lthumb -2.75312 34.144
rfemur -13.9526 9.96303 35.6072
rtibia 45.695
rfoot -26.9027 -11.206
rtoes -0.186942
lfemur -38.8096 2.55612 -12.1882
ltibia 94.6789
lfoot 2.80364 -9.79843
ltoes -0.853516
6
root 0.447586 17.1472 -28.166 5.78426 2.72601 -5.57328
lowerback 16.1868 1.47512 4.07209
upperback -0.662425 3.04721 3.03966
thorax -9.79746 1.33522 0.250618
lowerneck -19.6427 -4.04847 -2.40323
upperneck 6.64872 -5.1601 3.11921
head 5.2903 -2.3486 0.852686
rclavicle -4.96962e-015 -2.14687e-014
rhumerus -32.9686 13.5146 -94.0103
rradius 103.69
rwrist -11.6201
rhand -23.5805 39.9666
rfingers 7.12502
rthumb 2.88246 10.0064
lclavicle -4.96962e-015 -2.14687e-014
lhumerus -59.1662 -10.9142 97.419
lradius 105.021
lwrist 29.574
lhand -29.6238 4.07039
lfingers 7.12502
lthumb -2.95418 34.0297
rfemur -11.9172 9.81118 35.8355
rtibia 44.1258
rfoot -26.0154 -10.6373
rtoes -1.22376
lfemur -40.5657 1.6514 -12.488
ltibia 93.255
lfoot 1.18958 -8.56866
ltoes -4.20617
7
root 0.465331 17.2415 -27.6931 6.16568 3.13401 -5.40764
lowerback 15.4775 1.66714 4.25937
upperback -0.610282 3.27437 2.9019
thorax -9.31088 1.44213 -0.0351919
lowerneck -19.9923 -4.2935 -2.3089
upperneck 6.42861 -5.48836 3.06236
head 5.2783 -2.50805 0.78233
rclavicle 5.66536e-014 4.29375e-014
rhumerus -32.09 13.5936 -93.7603
rradius 105.06
rwrist -12.1124
rhand -23.9155 40.2256
rfingers 7.12502
rthumb 2.559 10.2612
lclavicle 5.66536e-014 4.29375e-014
lhumerus -59.9316 -11.0839 97.677
lradius 105.484
lwrist 29.6403
lhand -29.586 3.92585
lfingers 7.12502
lthumb -2.91766 33.8856
rfemur -9.9512 9.63755 35.894
rtibia 42.6118
rfoot -24.0269 -10.8758
rtoes -1.94822
lfemur -42.0655 0.817135 -12.9816
ltibia 91.2802
lfoot -0.281611 -7.5433
ltoes -4.91688
